<?xml version="1.0" encoding="UTF-8"?>
<svg id="Capa_1" xmlns="http://www.w3.org/2000/svg" xmlns:xlink="http://www.w3.org/1999/xlink" viewBox="0 0 1080 1080">
  <defs>
    <style>
      .cls-1 {
        opacity: .07;
      }

      .cls-2 {
        fill: #fff;
      }

      .cls-3 {
        fill: #13314b;
      }

      .cls-4, .cls-5, .cls-6 {
        fill: none;
      }

      .cls-5 {
        stroke-width: 12px;
      }

      .cls-5, .cls-6 {
        stroke: #fff;
        stroke-miterlimit: 10;
      }

      .cls-6 {
        stroke-width: 6px;
      }

      .cls-7 {
        clip-path: url(#clippath);
      }
    </style>
    <clipPath id="clippath">
      <circle class="cls-4" cx="534.53" cy="528.83" r="515.9"/>
    </clipPath>
  </defs>
  <circle class="cls-3" cx="534.53" cy="528.83" r="515.9"/>
  <g class="cls-7">
    <g class="cls-1">
      <polygon class="cls-2" points="524.22 1195.93 481.68 -404.24 581.11 -404.24 538.57 1195.93 524.22 1195.93 524.22 1195.93"/>
      <polygon class="cls-2" points="484.59 1215.76 230.98 -275.59 325.54 -346.87 498.24 1205.47 484.59 1215.76 484.59 1215.76"/>
      <polygon class="cls-2" points="449.54 1263.03 9.68 26.48 90.12 -109.1 461.15 1243.46 449.54 1263.03 449.54 1263.03"/>
      <polygon class="cls-2" points="422.51 1333.12 -160.55 472.4 -102.11 285.79 430.94 1306.18 422.51 1333.12 422.51 1333.12"/>
      <polygon class="cls-2" points="406.13 1419.15 -263.05 1018.53 -232.32 799.15 410.56 1387.49 406.13 1419.15 406.13 1419.15"/>
      <polygon class="cls-2" points="652.23 1387.49 1295.12 799.15 1325.84 1018.53 656.67 1419.15 652.23 1387.49 652.23 1387.49"/>
      <polygon class="cls-2" points="631.85 1306.18 1164.9 285.79 1223.35 472.4 640.29 1333.12 631.85 1306.18 631.85 1306.18"/>
      <polygon class="cls-2" points="601.64 1243.46 972.67 -109.1 1053.12 26.48 613.25 1263.03 601.64 1243.46 601.64 1243.46"/>
      <polygon class="cls-2" points="564.56 1205.47 737.25 -346.87 831.82 -275.59 578.2 1215.76 564.56 1205.47 564.56 1205.47"/>
    </g>
  </g>
  <circle class="cls-5" cx="534.53" cy="528.83" r="479.98"/>
  <path class="cls-6" d="M461.38,980.04c-216.06-34.98-381.04-222.35-381.04-448.32,0-250.83,203.37-454.09,454.2-454.09s454.2,203.26,454.2,454.09c0,226.07-165.19,413.65-381.45,448.32"/>
  <g>
    <path class="cls-2" d="M484.07,274.1c14.44-26,28.99-52.11,43.54-78.11v790.98c-10.07.64-21.64.76-34.38-.18-12.18-.9-23.14-2.6-32.67-4.59.36-10.87,11.44-344.18,11.8-355.08.36-10.74,11.35-342.25,11.71-353.03Z"/>
    <path class="cls-2" d="M608.5,981.59c-8.77,2.29-19.2,4.36-31.01,5.49-13.75,1.31-25.96,1-36.06.1V195.99c12.48,25.63,24.97,51.26,37.45,76.9,9.8,236.27,19.71,472.43,29.61,708.7Z"/>
  </g>
</svg>